<svg width="33" height="33" viewBox="0 0 33 33" fill="none" xmlns="http://www.w3.org/2000/svg">
<g clip-path="url(#clip0_401_2)">
<path d="M24 22.822V27.822C24 28.0872 23.8946 28.3416 23.7071 28.5291C23.5196 28.7166 23.2652 28.822 23 28.822H5C4.73478 28.822 4.48043 28.7166 4.29289 28.5291C4.10536 28.3416 4 28.0872 4 27.822V9.82199C4 9.55677 4.10536 9.30242 4.29289 9.11488C4.48043 8.92735 4.73478 8.82199 5 8.82199H10C10.5304 8.82199 11.0391 8.61128 11.4142 8.2362C11.7893 7.86113 12 7.35242 12 6.82199C12 6.29156 11.7893 5.78285 11.4142 5.40778C11.0391 5.0327 10.5304 4.82199 10 4.82199H3C2.20435 4.82199 1.44129 5.13806 0.87868 5.70067C0.31607 6.26328 0 7.02634 0 7.82199L0 29.822C0 30.6176 0.31607 31.3807 0.87868 31.9433C1.44129 32.5059 2.20435 32.822 3 32.822H25C25.7956 32.822 26.5587 32.5059 27.1213 31.9433C27.6839 31.3807 28 30.6176 28 29.822V22.822C28 22.2916 27.7893 21.7829 27.4142 21.4078C27.0391 21.0327 26.5304 20.822 26 20.822C25.4696 20.822 24.9609 21.0327 24.5858 21.4078C24.2107 21.7829 24 22.2916 24 22.822Z" fill="white"/>
<path d="M30 0.821991H18C16.8954 0.821991 16 1.71742 16 2.82199C16 3.92656 16.8954 4.82199 18 4.82199H30C31.1046 4.82199 32 3.92656 32 2.82199C32 1.71742 31.1046 0.821991 30 0.821991Z" fill="white"/>
<path d="M32 14.822V2.82199C32 1.71742 31.1046 0.821991 30 0.821991C28.8954 0.821991 28 1.71742 28 2.82199V14.822C28 15.9266 28.8954 16.822 30 16.822C31.1046 16.822 32 15.9266 32 14.822Z" fill="white"/>
<path d="M28.6104 1.40359L8.58229 21.4317C7.80671 22.2073 7.80655 23.4646 8.58194 24.24C9.35732 25.0153 10.6146 25.0152 11.3902 24.2396L31.4183 4.21151C32.1939 3.43593 32.194 2.17862 31.4187 1.40324C30.6433 0.627852 29.386 0.628011 28.6104 1.40359Z" fill="white"/>
</g>
<defs>
<clipPath id="clip0_401_2">
<rect width="32.822" height="32.822" fill="white"/>
</clipPath>
</defs>
</svg>
