<svg width="20" height="20" viewBox="0 0 20 20" fill="none" xmlns="http://www.w3.org/2000/svg">
<path d="M8.75001 0L7.50001 2.975C7.25001 3.05 7.02501 3.175 6.80001 3.3L3.82501 2.05L2.02501 3.85L3.27501 6.825C3.15001 7.075 3.05001 7.275 2.95001 7.525L-0.0249939 8.775V11.275L2.95001 12.525C3.05001 12.775 3.15001 12.975 3.27501 13.225L2.02501 16.2L3.82501 18L6.80001 16.75C7.02501 16.85 7.25001 16.975 7.50001 17.075L8.75001 20.05H11.25L12.5 17.075C12.725 16.975 12.975 16.875 13.2 16.75L16.175 18L17.975 16.2L16.725 13.225C16.825 13 16.95 12.75 17.05 12.525L20.025 11.275V8.775L17.05 7.525C16.975 7.3 16.85 7.05 16.725 6.825L17.975 3.85L16.175 2.05L13.2 3.3C12.975 3.2 12.725 3.075 12.5 2.975L11.25 0H8.75001V0ZM10 6.25C12.075 6.25 13.75 7.925 13.75 10C13.75 12.075 12.075 13.75 10 13.75C7.92501 13.75 6.25001 12.075 6.25001 10C6.25001 7.925 7.92501 6.25 10 6.25Z" fill="#DDCDEA" fill-opacity="0.5"/>
</svg>
